<svg id="Layer_1" data-name="Layer 1" xmlns="http://www.w3.org/2000/svg" viewBox="0 0 595.28 211"><defs><style>.cls-1{fill:#fff;}</style></defs><path class="cls-1" d="M44.59,92.41l106-86.53.89.61c-7.36,20.44-14.71,40.88-22.28,61.93a35,35,0,0,0,4.72.54c7.24-.17,14.47-.37,21.7-.72,3-.15,4.15.79,4.18,4,.16,20.3-2.41,40.09-10.17,59C139.49,155.93,122.3,173,96.76,181.57c-13.77,4.6-27.69,7.69-42.22,5.65-16.41-2.3-27.8-11.42-34.25-26.69a13.38,13.38,0,0,1-.38-2.17c1.54.7,2.61,1.11,3.6,1.66,11.7,6.52,24,10,37.62,9,21.59-1.65,47.27-25.09,45-49.21A49.73,49.73,0,0,0,97,96c-1-1.37-3.57-2.18-5.43-2.21-15-.25-30-.24-44.94-.32-.49,0-1,0-1.47-.07Z"/><path class="cls-1" d="M434.08,173.66c-.95.61-1.86,1.12-2.7,1.74-13.56,10-31.39,3.46-35.07-13.08-2-9-1.63-17.89,3.22-26.12a20.81,20.81,0,0,1,14.58-10c10.08-2,19.28,1.06,28.07,5.59A4.8,4.8,0,0,1,444,135.4c.1,15.12.29,30.26-.06,45.37-.32,13.64-8.41,21.95-22.36,22.62-6,.29-12.06-1.24-18.08-2.07-2.47-.34-3.51-1.69-2.23-4.21a10.69,10.69,0,0,0,.78-2.5c.59-2.55,1.89-3.24,4.61-2.73a62.77,62.77,0,0,0,13.69,1.46C430.64,193,437.62,183,434.08,173.66Zm-.74-24.73-.46-.07c0-1,0-2,0-3,0-7.46-.63-8.27-8.11-9.77-8.4-1.67-14.49,1.22-17,8.32a25.16,25.16,0,0,0,.17,17.24c2,5.48,6.06,8.19,11.68,8.16,6,0,10-2.53,11.74-8.43C432.56,157.39,432.72,153.09,433.34,148.93Z"/><path class="cls-1" d="M332,106c-4.38,0-7.52.32-10.54-.14-1.42-.21-2.93-1.69-3.85-3-2.94-4.16-5.5-8.59-8.47-12.73a15.29,15.29,0,0,0-4.68-4.2c-4.9-2.8-7.29-1.35-7.3,4.15,0,4.12-.05,8.24,0,12.36,0,2.46-.82,3.67-3.48,3.66-10-.07-8.05.42-8.08-7.89-.09-21.74.05-43.48-.13-65.21,0-3.83,1.09-5.29,4.83-4.74a12.46,12.46,0,0,0,3,0c3-.26,3.92,1.09,3.9,4-.1,12.62-.06,25.24,0,37.85,0,4.19,1.92,5.67,5.49,3.41,3.14-2,5.67-5.09,8.09-8a55.35,55.35,0,0,0,5.53-8.45,5.72,5.72,0,0,1,6-3.34c2.45.19,4.93,0,8.52,0-6.17,9.42-9.93,19.29-19.77,25.56C321.74,85.5,325.49,96.06,332,106Z"/><path class="cls-1" d="M274,87.7c0,5,.13,10-.1,15-.05,1.14-1.18,3-2.08,3.19-1.9.38-4.2.85-5.4-1.89-1.76-4-1.89-4-5.32-1.28-6.88,5.34-14.62,5.63-22.37,2.93-7.15-2.48-10.38-9-9.37-16.85,1-7.69,6-12.72,14.48-13.67,4.82-.54,9.73-.28,14.59-.41,4.39-.12,5.14-1.12,3.68-5.24-1.53-4.29-5-6.35-9.24-6.46a61.13,61.13,0,0,0-12.19,1.19c-4.24.76-4.43.59-6.17-5.51-1-3.5,1.29-3.67,3.47-4.25,7.22-1.94,14.41-2.7,21.78-.54,7.89,2.33,12.83,7.42,13.77,15.46.7,6,.14,12.21.14,18.33Zm-11.37-4c-6,0-11.45-.17-16.9.07-2.91.13-4.75,2.18-5.27,5s.25,5.62,3,7.12c4.83,2.69,9.75,1.84,14.25-.77C261.69,92.76,262.62,88.64,262.59,83.69Z"/><path class="cls-1" d="M297.27,152.73c.17-10.12,2.68-19.35,12.46-24.2,8.85-4.4,18.12-4.48,26.71,1,5.7,3.66,6.94,9.52,6.08,15.86-.81,5.86-5,9-10.15,10.25-5.9,1.48-12,2.12-18,3.24-1.38.26-3.74.89-3.8,1.54-.16,1.54.29,3.81,1.38,4.68,2.33,1.85,5.11,3.92,7.89,4.21,4.24.45,8.66-.29,12.93-1,4.08-.66,4.19-.64,5.86,5.4.86,3.09-.6,4.23-3.18,4.52-5.42.63-10.92,1.9-16.27,1.48-12.9-1-21.2-10.25-21.91-23.29C297.21,155.23,297.27,154,297.27,152.73Zm11.6-1.59c6.52-1.1,12.41-1.93,18.22-3.15,2.54-.54,4.92-2.38,4.36-5.21-.43-2.16-1.87-4.95-3.66-5.84a12.6,12.6,0,0,0-13.46,1C310.24,140.94,308.71,145.29,308.87,151.14Z"/><path class="cls-1" d="M513,97.24c3.29-.61,6.63-1,9.87-1.89,2.6-.67,3.86-.06,4.6,2.62,1.69,6.11,1.65,6.51-4.41,7.86-8.45,1.89-16.77,2.3-24.74-2.14-9.54-5.3-12.82-18.33-11.33-28.54,1.36-9.25,5.12-17,14.43-20.68,9-3.56,22.14-2.42,27.9,5.32,5.32,7.13,4.77,18.91-5.87,22.37-6.34,2-13.14,2.67-19.75,3.89-4.64.86-5.23,2.31-2.36,6.12S508.28,97.23,513,97.24Zm-1.13-34.53c-7.39-.05-12.7,4.81-13.5,12.23-.23,2.12.5,3.21,2.64,2.85,5.39-.9,10.79-1.77,16.13-2.92,3-.65,4.16-2.9,3.88-5.93C520.63,65,517.38,62.74,511.86,62.71Z"/><path class="cls-1" d="M219.9,167.88c3.26,9.78,3.26,9.78-6.18,11.5-15.94,2.88-27.56-2.65-31.69-15.3a34.9,34.9,0,0,1,.15-22.81c4.95-14.25,23.37-20.56,36.24-12.49,5.84,3.66,8.07,9,7.42,15.59s-5.11,10.14-11.11,11.54c-5.8,1.35-11.75,2.11-17.64,3-4.15.65-5.27,2.5-2.48,5.56,2,2.24,5.07,4.35,7.94,4.82,3.92.66,8.11-.24,12.18-.58C216.43,168.61,218.1,168.19,219.9,167.88ZM215.47,142c-1.52-1.76-2.69-4.2-4.61-5.18-8.12-4.13-17.93,1.66-18.85,10.76-.22,2.19.28,3.45,2.78,3,4.92-.79,9.88-1.42,14.76-2.42C212.36,147.64,214.67,146.09,215.47,142Z"/><path class="cls-1" d="M388.14,80.17c-1,4.08-1.44,8.62-3.1,12.67-4.52,11-14.42,16-26.78,14-11.46-1.87-18.9-10.18-20.05-22.72-.81-8.78.32-17.14,6.51-24.09,9.87-11.09,34.74-10.91,41,8.43C386.85,72,387.27,75.9,388.14,80.17Zm-11.58,0c-.38-2.58-.6-5-1.1-7.26a12.36,12.36,0,0,0-11.08-10.1c-6.29-.65-11,2-13.41,7.8a23.87,23.87,0,0,0-.07,18.24c2.27,5.84,6.5,8.31,12.91,8,5.68-.29,9.76-3.43,11.41-9.14A69.78,69.78,0,0,0,376.56,80.17Z"/><path class="cls-1" d="M507.13,126.74l-10,24.78c-6.3,15.62-12.64,31.21-18.84,46.86-1.15,2.91-2.71,4.52-6,4.16-2.06-.23-4.17,0-7.19,0,1.64-4.05,2.76-7.43,4.34-10.59,4.9-9.79,3.4-19.39-.52-29-4.63-11.31-9.32-22.6-14-33.9a16.39,16.39,0,0,1-.5-2.1c3.74,0,7.26-.17,10.74.14.76.06,1.6,1.76,2,2.85,4,10.73,7.9,21.5,11.84,32.25.29.78.69,1.53,1.45,3.2.88-1.81,1.51-2.87,1.93-4,4-10.73,7.93-21.49,12.07-32.17a4.62,4.62,0,0,1,3.19-2.36A82,82,0,0,1,507.13,126.74Z"/><path class="cls-1" d="M250.39,178.48H239c-.1-1.24-.23-2.1-.23-3q0-22.52,0-45c0-1.74-.31-3.77,2.33-3.79,2.13,0,4.46-.73,5.39,2.5,1.21,4.14,1.77,4.18,5.14,1.49,7.67-6.11,18.09-6.81,25.4-1.77,5.33,3.67,7.44,9.1,7.62,15.15.32,10.62.1,21.25.17,31.88,0,2.36-1.08,2.87-3.24,2.89-9.38.09-8.28.7-8.33-8.1,0-8,0-16,0-24,0-6-2.34-9.53-6.86-10.69-5.47-1.4-11,.62-13.44,5.52a22.91,22.91,0,0,0-2.4,8.88c-.33,7.86-.13,15.75-.14,23.63Z"/><path class="cls-1" d="M394.73,53.81a76.64,76.64,0,0,1,9.22.11,4.67,4.67,0,0,1,3.14,2.51c4.1,10.69,8,21.46,12,32.2.35,1,.8,1.9,1.2,2.85h1l1.18-3.19c3.92-10.63,7.75-21.29,11.86-31.84.47-1.21,2.44-2.34,3.86-2.56,2.65-.4,5.4-.11,8.84-.11-2.66,6.5-5.16,12.3-7.4,18.19-3.81,10-7.61,20-11.06,30.14-1.05,3.08-2.49,4.07-5.61,4-8.45-.08-8.33,0-11-7-5.3-14-10.73-27.9-16.1-41.86C395.53,56.43,395.27,55.5,394.73,53.81Z"/><path class="cls-1" d="M215.25,59.51c0,9.84.74,19.75-.18,29.51-1.2,12.57-11.54,19.74-24.17,18-1.48-.21-3-.5-4.41-.8-6.32-1.3-6.52-1.76-4.66-7.83.89-2.92,2.18-4.27,5.36-2.8a15.88,15.88,0,0,0,4.74,1c6.18.69,9.79-1.62,11.44-7.58a27.46,27.46,0,0,0,.8-7c.07-15.6.05-31.21.06-46.81,0-5.12,0-5.14,5.27-5.16h1.13c5.28,0,5.29,0,5.29,5.15q0,12.18,0,24.34Z"/><path class="cls-1" d="M365.89,135.19c1.78-1.59,3-2.62,4.12-3.7a19.19,19.19,0,0,1,12.25-5.69c2.27-.15,3.09.73,3.22,3,.37,6.05.35,6.16-5.3,7.58a13.17,13.17,0,0,0-9.84,8.88,64.66,64.66,0,0,0-2.9,13.81c-.51,5.57-.26,11.22-.23,16.83,0,2.05-.77,2.84-2.8,3-8.28.77-8.71.43-8.71-7.77,0-13.35,0-26.7,0-40.06,0-1.72-.7-4,2.21-4.3,2.7-.26,5.29-.39,6,3.28A34.1,34.1,0,0,0,365.89,135.19Z"/><path class="cls-1" d="M473.83,80.19c0,7.24-.12,14.48,0,21.71.08,3.31-1.21,4.61-4.41,4.2a8.37,8.37,0,0,0-1.12,0c-5.82,0-5.83,0-5.83-5.75,0-10.6-.07-21.21.05-31.81,0-3-.39-4.84-4.09-5.1-4.2-.3-2.09-4-2.47-6.25s.52-3.53,3.11-3.42c3.61.14,7.24.18,10.84,0,3-.17,3.93,1.23,3.9,4C473.78,65.22,473.83,72.7,473.83,80.19Z"/><path class="cls-1" d="M473.52,34.31c0,4.33-2.38,6.75-6.68,6.79a6.61,6.61,0,0,1-6.9-6.81,6.66,6.66,0,0,1,6.91-6.83C471,27.46,473.52,30,473.52,34.31Z"/></svg>